<svg xmlns="http://www.w3.org/2000/svg" viewBox="0 0 32.6 28.4">
<g><path fill="#7C1618" d="M25,14l7.6-5.7l-9.9,1.2L26,0.6l-5.8,5.9l-4.1-6.2c-0.3-0.4-0.9-0.4-1.2,0l-4.7,7.2L4.8,4.4l2.7,6.8L0,12
		l5,3.6l-4.5,7c-0.2,0.2-0.2,0.5,0,0.7c0.1,0.2,0.4,0.4,0.6,0.4h5.5l-1.9,4.8l7.4-4.8h0.5l3.7,4.7l2.5-4.7h0.7l7.7,2.4l-1.8-2.4h4.6
		c0.3,0,0.5-0.1,0.6-0.4c0.1-0.2,0.1-0.5,0-0.7L25,14z M20.1,18.9l3.4,4.6l-5.4-1.7l-2.2,4l-3.3-4.2L7.4,25l1.9-4.9l-3.9,0.6
		l3.2-4.2l-4.9-3.5l5.8-0.6L7.5,7.6l4.7,2.8l3.2-7l3.2,6.7l4-4l-1.9,5.1l7.1-0.8L21,15.3l4.9,5.3L20.1,18.9z"/><g>
		<path fill="#4F5253" d="M15.5,18.2c0.9,0,1.6,0.7,1.6,1.6c0,0.8-0.7,1.6-1.6,1.6c-0.8,0-1.6-0.7-1.6-1.6
			C13.9,18.9,14.6,18.2,15.5,18.2z M14.8,16.4L14,11.8V9.9c0-0.2,0.1-0.3,0.3-0.3h2.3c0.2,0,0.3,0.2,0.3,0.3v1.9l-0.8,4.7
			c0,0.1-0.2,0.3-0.3,0.3h-0.7C15,16.7,14.8,16.5,14.8,16.4z"/></g></g></svg>
