<svg xmlns="http://www.w3.org/2000/svg" viewBox="0 0 32 26.5">
<path fill="#4F5253" d="M26.7,17.9c-0.8,1.8-2.1,3.4-3.7,4.6c0.5,0.3,1,0.6,1.3,1c1.8-1.5,3.2-3.4,4-5.6H26.7z"/>
		<path fill="#4F5253" d="M11.7,2.4C13,1.9,14.5,1.6,16,1.6c1.5,0,2.9,0.3,4.2,0.8c0.6-0.4,1.2-0.7,1.9-0.9C20.3,0.5,18.2,0,16,0
			c-2.2,0-4.3,0.5-6.1,1.5C10.5,1.7,11.2,2,11.7,2.4z"/>
		<path fill="#4F5253" d="M7.6,23.5c0.4-0.4,0.8-0.7,1.3-1c-1.6-1.2-2.8-2.8-3.7-4.6H3.6C4.4,20.1,5.8,22,7.6,23.5z"/><ellipse fill="#7C1618" cx="8.4" cy="7.7" rx="4.6" ry="5"/><ellipse fill="#7C1618" cx="23.6" cy="7.7" rx="4.6" ry="5"/><path fill="#7C1618" d="M21.9,16.5H32c0-1.6-1.8-3-4.5-3.8c-1.1,0.9-2.4,1.5-3.9,1.5c-1.5,0-2.8-0.6-3.9-1.5c0,0,0,0,0,0C20.8,13.7,21.6,15,21.9,16.5z"/><path fill="#7C1618" d="M12,12.9c-1,0.8-2.3,1.3-3.7,1.3c-1.5,0-2.8-0.6-3.9-1.5C1.8,13.4,0,14.9,0,16.5h10.1C10.3,15.1,11,13.8,12,12.9z"/><path fill="#7C1618" d="M19.8,22.7c-1.1,0.9-2.4,1.5-3.9,1.5c-1.5,0-2.8-0.6-3.9-1.5c-2.7,0.7-4.5,2.1-4.5,3.8h16.7
				C24.3,24.9,22.5,23.5,19.8,22.7z"/><ellipse fill="#7C1618" cx="16" cy="17.7" rx="4.6" ry="5"/></svg>
