<svg xmlns="http://www.w3.org/2000/svg" viewBox="0 0 26.5 22.2"><path d="M24.2,6.5h-3.1v4.4c0,2.4-2,4.4-4.4,4.4h-6.7v0.5c0,1.3,1,2.3,2.3,2.3h7.3l4.8,4.1l-0.9-4.1h0.6
		c1.3,0,2.3-1,2.3-2.3v-7C26.5,7.5,25.4,6.5,24.2,6.5z"/><path d="M16.1,0H2.6C1.2,0,0,1.2,0,2.6v8c0,1.4,1.2,2.6,2.6,2.6h0.8l-1.2,4.9l5.7-4.9h8.3c1.4,0,2.6-1.2,2.6-2.6v-8
	C18.8,1.2,17.6,0,16.1,0z M5.7,7.9c-0.6,0-1.1-0.5-1.1-1.1c0-0.6,0.5-1.1,1.1-1.1c0.6,0,1.1,0.5,1.1,1.1C6.7,7.5,6.2,7.9,5.7,7.9z
	 M9.4,7.9c-0.6,0-1.1-0.5-1.1-1.1c0-0.6,0.5-1.1,1.1-1.1c0.6,0,1.1,0.5,1.1,1.1C10.4,7.5,10,7.9,9.4,7.9z M13.1,7.9
	c-0.6,0-1.1-0.5-1.1-1.1c0-0.6,0.5-1.1,1.1-1.1c0.6,0,1.1,0.5,1.1,1.1C14.1,7.5,13.7,7.9,13.1,7.9z"/></svg>
