<svg xmlns="http://www.w3.org/2000/svg" viewBox="0 0 20.6 23.8"><polygon fill="#595858" points="19.2,1.5 0,1.5 0,23.8 19.2,23.8 "/><path fill="#FFFFFF" d="M20.6,0h-9.1l2.8,2.8l-2.8,2.7c-1,1-1,2.5,0,3.5c0.5,0.5,1.1,0.7,1.7,0.7c0.6,0,1.3-0.2,1.7-0.7l2.8-2.7
	l2.8,2.8V0z"/><path fill="none" stroke="#FFFFFF" stroke-width="3.5" stroke-miterlimit="10" d="M20.6,0h-9.1l2.8,2.8l-2.8,2.7c-1,1-1,2.5,0,3.5
	c0.5,0.5,1.1,0.7,1.7,0.7c0.6,0,1.3-0.2,1.7-0.7l2.8-2.7l2.8,2.8V0z"/><path fill="#595858" d="M20.6,0h-9.1l2.8,2.8l-2.8,2.7c-1,1-1,2.5,0,3.5c0.5,0.5,1.1,0.7,1.7,0.7c0.6,0,1.3-0.2,1.7-0.7l2.8-2.7
	l2.8,2.8V0z"/></svg>
