<svg xmlns="http://www.w3.org/2000/svg" viewBox="0 0 35 19">
<g><path fill="#4F5253" d="M18.3,8.4c0-0.2,0-0.3-0.1-0.5h15.8l-3-2.6H17.5C16.1,2.2,12.9,0,9.2,0C4.1,0,0,4.1,0,9.2
		c0,5.1,4.1,9.2,9.2,9.2c3.5,0,6.6-2,8.1-4.9h2.2l2.3-2.5l1.8,1.8l1.7-1.7l1.8,1.7l1.7-1.7l1.8,1.7l3.8-4.4H18.3z M9.2,16
		C5.4,16,2.4,13,2.4,9.2c0-3.8,3.1-6.8,6.8-6.8C13,2.4,16,5.4,16,9.2C16,13,13,16,9.2,16z"/><path fill="#7C1618" d="M10.1,7.7H8.3C8.1,7.7,8,7.8,8,8v6c0,0.2,0.2,0.3,0.3,0.3h1.8c0.2,0,0.3-0.1,0.3-0.3V8
		C10.4,7.8,10.3,7.7,10.1,7.7z"/><path fill="#7C1618" d="M9.2,3.9c-0.7,0-1.3,0.6-1.3,1.3s0.6,1.3,1.3,1.3c0.7,0,1.3-0.6,1.3-1.3S9.9,3.9,9.2,3.9z"/></g></svg>
