<?xml version="1.0" encoding="utf-8"?>
<!-- Generator: Adobe Illustrator 18.0.0, SVG Export Plug-In . SVG Version: 6.00 Build 0)  -->
<!DOCTYPE svg PUBLIC "-//W3C//DTD SVG 1.1//EN" "http://www.w3.org/Graphics/SVG/1.1/DTD/svg11.dtd">
<svg version="1.1" id="Layer_1" xmlns="http://www.w3.org/2000/svg" xmlns:xlink="http://www.w3.org/1999/xlink" x="0px" y="0px"
	 viewBox="0 0 30.3 30.6" enable-background="new 0 0 30.3 30.6" xml:space="preserve">
<g>
	<g>
		<path fill="#7C1618" d="M15.5,18.2c0.9,0,1.6,0.7,1.6,1.6c0,0.8-0.7,1.6-1.6,1.6c-0.8,0-1.6-0.7-1.6-1.6
			C13.9,18.9,14.6,18.2,15.5,18.2z M14.8,16.4L14,11.8V9.9c0-0.2,0.1-0.3,0.3-0.3h2.3c0.2,0,0.3,0.1,0.3,0.3v1.9l-0.8,4.7
			c0,0.1-0.2,0.3-0.3,0.3h-0.7C15,16.7,14.8,16.5,14.8,16.4z"/>
	</g>
	<path fill="#4F5253" d="M19.6,23.1l-3.7,2.7l-3.7-3.3L7.4,25L9.4,20l-3.9,0.6l3.1-4.2l-4.9-3.5l5.8-0.6L7.5,7.5l4.7,2.8l3.2-7
		l3.8,7.9c0.3-1.1,1.2-1.9,2.2-2.2l-5.4-8.7c-0.3-0.4-0.9-0.4-1.2,0l-4.7,7.2L4.8,4.4l2.7,6.8L0,12l5,3.6l-4.5,6.9
		c-0.1,0.2-0.2,0.5,0,0.7c0.1,0.2,0.4,0.4,0.6,0.4h5.5l-1.9,4.8l7.3-4.1l3.8,3.4l4.8-3.7C20.2,23.8,19.9,23.5,19.6,23.1z"/>
	<g>
		<circle fill="#7C1618" cx="25.5" cy="6.8" r="3"/>
		<path fill="#7C1618" d="M20.7,21.4c0,0.8,0.7,1.5,1.5,1.5h0.4v6.3c0,0.8,0.7,1.5,1.5,1.5h3.3c0.8,0,1.5-0.7,1.5-1.5v-6.3
			c0.8,0,1.5-0.7,1.5-1.5V12c0-0.8-0.7-1.5-1.5-1.5h-6.7c-0.8,0-1.5,0.7-1.5,1.5V21.4z"/>
	</g>
</g>
</svg>
