<svg xmlns="http://www.w3.org/2000/svg" viewBox="0 0 30.9 35.4">
<g><path fill="#7C1618" d="M26.9,20.3c0.6-0.9,1-2.1,1.1-3.4c0.3-2.9,2.9-4.4,2.9-4.4c-2.8-1.3-4.4,0.8-4.4,0.7c0-0.4,1.5-5.2-1.5-6.6
		c-3.5-1.7-4.4-3-4.4-5.1c0,0.1-2.1,3.5-0.7,5.1c2.1,2.6,1.2,4.6,0,4.4c-2.1-0.3-1.8-3-1.5-3.7c-1.1-0.1-2.3,0.6-2.9,1.5
		C15.3,9.1,26.5,20.8,26.9,20.3z M23.6,3.7c-0.4-0.5-0.7-1.1-0.7-1.5c0-0.8,0.6-1.5,1.5-2.2c0.1,0.6-0.4,1.5,0,2.2
		C24.6,2.7,25,3.3,25,3.7c0,0.5-0.2,1-0.7,1.5C24.2,4.9,24.1,4.3,23.6,3.7z"/><polygon fill="#4F5253" points="24.5,33.5 22.1,33.5 22.1,20.9 24.1,20.9 15.5,12.2 6.8,20.9 8.8,20.9 8.8,32.8 6.4,32.8 6.4,23.3
		1,23.3 15.5,8.8 29.9,23.3 24.5,23.3 	"/><path fill="#7C1618" d="M26.6,30.7c-1.6,0-3.2-0.5-4.3-1.6c-1.5-1.5-4.8-1.5-6.3,0c-2.2,2.1-6.4,2.1-8.6,0c-1.5-1.5-4.8-1.5-6.3,0
		L0,28c2.2-2.1,6.4-2.1,8.6,0c1.5,1.5,4.8,1.5,6.3,0c2.2-2.1,6.4-2.1,8.6,0c1.5,1.5,4.8,1.5,6.3,0l1.1,1.1
		C29.8,30.2,28.2,30.7,26.6,30.7z"/><path fill="#7C1618" d="M26.6,35.4c-1.6,0-3.2-0.5-4.3-1.6c-1.5-1.5-4.8-1.5-6.3,0c-2.2,2.1-6.4,2.1-8.6,0c-1.5-1.5-4.8-1.5-6.3,0
		L0,32.7c2.2-2.1,6.4-2.1,8.6,0c1.5,1.5,4.8,1.5,6.3,0c2.2-2.1,6.4-2.1,8.6,0c1.5,1.5,4.8,1.5,6.3,0l1.1,1.1
		C29.8,34.9,28.2,35.4,26.6,35.4z"/></g></svg>
