<svg xmlns="http://www.w3.org/2000/svg" viewBox="0 0 24 23">
<circle fill="#4F5253" cx="11.7" cy="11.3" r="11.2"/><path fill="#FFFFFF" stroke="#FFFFFF" stroke-width="3.5" stroke-miterlimit="10" d="M4.8,12c1.2-1.2,3.9-3.9,6.9-3.9
	c3,0,5.7,2.2,6.9,3.3c-1.2,1.2-3.9,3-6.9,3C8.7,14.4,6,13.1,4.8,12z"/><path fill="#FFFFFF" d="M4,12c1.3-1.3,4.3-4.3,7.7-4.3c3.4,0,6.3,2.4,7.7,3.7c-1.3,1.3-4.3,3.3-7.7,3.3C8.3,14.8,5.4,13.3,4,12z"/><circle fill="#7C1618" cx="11.7" cy="11.3" r="4.7"/><circle fill="#7C1618" stroke="#FFFFFF" stroke-miterlimit="10" cx="11.7" cy="11.3" r="3.2"/></svg>
