<svg xmlns="http://www.w3.org/2000/svg" viewBox="0 0 27.7 24.2">
<g><g><path d="M24.5,6.5l-12.2,0l-1.2,1.1l2.9,2.9l0.3,2.4h2.4V16h-4.1v-1.7l-0.5-0.1V16H7.7v-3.1h1.6l-1.7-1.7l-1.4,1.4
			v8.3c0,1.9,1.5,3.4,3.4,3.4h14.8c1.9,0,3.4-1.5,3.4-3.4v-11C27.7,8,26.3,6.6,24.5,6.5z M12.1,22.7H9.6c-1,0-1.8-0.8-1.8-1.8v-1.1
			h4.3V22.7z M12.1,19.2H7.7v-2.7h4.3V19.2z M16.7,22.7h-4.1v-3h4.1V22.7z M16.7,19.2h-4.1v-2.7h4.1V19.2z M21.3,22.7h-4.1v-3h4.1
			V22.7z M21.3,19.2h-4.1v-2.7h4.1V19.2z M21.3,16h-4.1v-3.1h4.1V16z M26.2,20.9c0,1-0.8,1.8-1.8,1.8h-2.5v-3h4.3V20.9z M26.2,19.2
			h-4.3v-2.7h4.3V19.2z M26.2,16h-4.3v-3.1h4.3V16z"/></g><path style="fill: #575757;" d="M12.9,12.9l-0.2-1.8L9.2,7.6l3.3-3.3c-0.5-0.5-1.6-0.9-2.1-0.4L9.8,4.4L7.1,1.7l0,0c0.4-0.4,0.4-1,0-1.4
		c-0.4-0.4-1-0.4-1.4,0L0.3,5.7c-0.4,0.4-0.4,1,0,1.4c0.4,0.4,1,0.4,1.4,0l0,0l2.7,2.7l-0.6,0.6c-0.5,0.5,0,1.6,0.4,2.1l3.3-3.3
		l3.5,3.5L12.9,12.9z"/></g></svg>
